<?xml version="1.0" standalone="no"?>
<!DOCTYPE svg PUBLIC "-//W3C//DTD SVG 20010904//EN"
 "http://www.w3.org/TR/2001/REC-SVG-20010904/DTD/svg10.dtd">
<svg version="1.0" xmlns="http://www.w3.org/2000/svg"
 width="688.000000pt" height="643.000000pt" viewBox="0 0 688.000000 643.000000"
 preserveAspectRatio="xMidYMid meet">
<metadata>
Created by potrace 1.16, written by Peter Selinger 2001-2019
</metadata>
<g transform="translate(0.000000,643.000000) scale(0.100000,-0.100000)"
fill="#000000" stroke="none">
<path d="M4086 6038 l-138 -140 -139 138 -139 139 -120 -120 -120 -120 -119
119 c-69 69 -125 117 -133 114 -9 -1 -271 -261 -583 -576 l-568 -573 459 -462
c252 -254 509 -512 571 -574 61 -62 118 -113 125 -113 7 0 66 53 130 117 l118
118 120 -120 120 -120 145 145 145 145 141 -141 141 -141 574 574 c316 315
574 577 574 581 0 12 -1144 1152 -1155 1151 -6 -1 -72 -64 -149 -141z"/>
<path d="M1235 3009 c-372 -54 -706 -304 -851 -639 -85 -196 -115 -439 -80
-649 71 -425 364 -755 778 -875 230 -66 494 -58 670 21 l58 26 0 113 c0 63 -3
114 -6 114 -3 0 -24 -13 -47 -29 -150 -103 -305 -132 -510 -96 -367 64 -649
328 -739 691 -30 125 -30 323 0 448 117 473 554 763 1049 695 86 -12 140 -32
208 -79 l45 -31 0 101 0 101 -72 34 c-122 57 -327 79 -503 54z"/>
<path d="M1910 1890 l0 -1060 89 0 90 0 4 503 c4 537 4 543 57 652 31 63 111
149 173 184 72 41 147 61 252 68 237 15 424 -74 505 -242 63 -129 63 -133 68
-672 l3 -493 95 0 94 0 0 424 c0 233 -5 470 -11 526 -26 263 -139 450 -327
548 -194 101 -448 120 -660 48 -90 -31 -121 -48 -187 -101 l-55 -45 0 208 c0
115 -3 277 -7 360 l-6 152 -89 0 -88 0 0 -1060z"/>
<path d="M3450 2770 l0 -180 90 0 90 0 0 180 0 180 -90 0 -90 0 0 -180z"/>
<path d="M5420 2860 l0 -90 474 -2 474 -3 -439 -950 c-241 -522 -442 -958
-445 -967 -5 -16 4 -18 93 -18 l98 0 455 981 455 981 3 79 3 79 -586 0 -585 0
0 -90z"/>
<path d="M4265 2399 c-153 -16 -273 -50 -427 -121 l-68 -31 0 -1003 0 -1004
95 0 95 0 0 408 c1 288 4 402 11 389 20 -34 160 -136 242 -177 127 -62 188
-75 362 -74 172 0 232 12 361 74 249 120 409 351 445 641 20 167 -24 373 -113
524 -23 39 -77 106 -122 151 -119 119 -250 188 -414 220 -81 15 -332 17 -467
3z m465 -189 c229 -65 394 -237 450 -473 73 -302 -69 -600 -343 -722 -129 -57
-313 -69 -447 -29 -208 62 -373 226 -425 424 -11 42 -15 125 -15 355 0 165 3
317 6 337 6 37 9 39 73 58 100 29 228 58 306 69 109 15 307 6 395 -19z"/>
<path d="M3450 1605 l0 -775 90 0 90 0 0 775 0 775 -90 0 -90 0 0 -775z"/>
</g>
</svg>
